<?xml version="1.0" encoding="utf-8"?>
<!-- Generator: Adobe Illustrator 18.1.1, SVG Export Plug-In . SVG Version: 6.00 Build 0)  -->
<!DOCTYPE svg PUBLIC "-//W3C//DTD SVG 1.1//EN" "http://www.w3.org/Graphics/SVG/1.1/DTD/svg11.dtd">
<svg version="1.1" id="Layer_1" xmlns="http://www.w3.org/2000/svg" xmlns:xlink="http://www.w3.org/1999/xlink" x="0px" y="0px"
	 width="32px" height="32px" viewBox="0 0 32 32" enable-background="new 0 0 32 32" xml:space="preserve">
<path fill="#444444" d="M16,0C7.2,0,0,7.2,0,16c0,8.8,7.2,16,16,16s16-7.2,16-16C32,7.2,24.8,0,16,0z M24,16.6
	c0,1.3-0.2,2.6-0.2,2.6s-0.2,1.1-0.6,1.6c-0.6,0.6-1.3,0.6-1.6,0.7c-2.2,0.2-5.6,0.2-5.6,0.2s-4.2,0-5.4-0.2c-0.4-0.1-1.2,0-1.8-0.7
	c-0.5-0.5-0.6-1.6-0.6-1.6S8,17.9,8,16.6v-1.2c0-1.3,0.2-2.6,0.2-2.6s0.2-1.1,0.6-1.6c0.6-0.6,1.3-0.6,1.6-0.7
	c2.2-0.2,5.6-0.2,5.6-0.2h0c0,0,3.4,0,5.6,0.2c0.3,0,1,0,1.6,0.7c0.5,0.5,0.6,1.6,0.6,1.6s0.2,1.3,0.2,2.6V16.6z"/>
<polygon fill="#444444" points="14.3,18.1 18.7,15.8 14.3,13.6 "/>
</svg>
