<?xml version="1.0" encoding="utf-8"?>
<!-- Generator: Adobe Illustrator 18.1.1, SVG Export Plug-In . SVG Version: 6.00 Build 0)  -->
<!DOCTYPE svg PUBLIC "-//W3C//DTD SVG 1.1//EN" "http://www.w3.org/Graphics/SVG/1.1/DTD/svg11.dtd">
<svg version="1.1" id="Layer_1" xmlns="http://www.w3.org/2000/svg" xmlns:xlink="http://www.w3.org/1999/xlink" x="0px" y="0px"
	 width="32px" height="32px" viewBox="0 0 32 32" enable-background="new 0 0 32 32" xml:space="preserve">
<path fill="#444444" d="M26.9,8.1C26.9,8.1,26.9,8.1,26.9,8.1C26.9,8.1,26.9,8.1,26.9,8.1z"/>
<path fill="#444444" d="M26.9,8.1C26.9,8,26.9,8.1,26.9,8.1L26.9,8.1z"/>
<path fill="#444444" d="M25.5,2.4C24,0.7,21.4,0,17.9,0H8C7.3,0,6.7,0.5,6.6,1.2L2.5,27.5c-0.1,0.5,0.3,1,0.8,1h6.1l1.5-9.8l0,0.3
	c0.1-0.7,0.7-1.2,1.4-1.2h2.9c5.7,0,10.2-2.3,11.5-9.1c0-0.2,0.1-0.6,0.1-0.6C27.3,5.6,26.9,3.9,25.5,2.4z"/>
<path fill="#444444" d="M28.4,9.4c-1.4,6.6-6,10.1-13.2,10.1h-2.6l-2,12.5h4.2c0.6,0,1.1-0.4,1.2-1.1l0.1-0.3l1-6.2l0.1-0.3
	c0.1-0.6,0.6-1.1,1.2-1.1h0.8c5,0,8.9-2,10.1-7.9C29.8,12.8,29.6,10.8,28.4,9.4z"/>
</svg>
