<?xml version="1.0" ?><!DOCTYPE svg  PUBLIC '-//W3C//DTD SVG 1.1//EN'  'http://www.w3.org/Graphics/SVG/1.1/DTD/svg11.dtd'><svg enable-background="new 0 0 24 24" height="24px" id="Layer_1" version="1.1" viewBox="0 0 24 24" width="24px" xml:space="preserve" xmlns="http://www.w3.org/2000/svg" xmlns:xlink="http://www.w3.org/1999/xlink"><g id="icon"><circle cx="12" cy="12" fill="#5175A8" r="11"/><path d="M11.5999,18.2024c-1.6098,0,-3.0964,-0.5475,-4.1862,-1.5418c-1.1613,-1.0596,-1.7752,-2.5117,-1.7752,-4.1991c0,-1.8766,0.6909,-3.6244,1.9455,-4.9216c1.3122,-1.3568,3.1603,-2.104,5.2039,-2.104c1.661,0,3.0911,0.5231,4.1357,1.5126c1.0167,0.9631,1.5767,2.319,1.5767,3.8178c0,2.8903,-1.7844,4.4025,-3.5471,4.4025c-0.5105,0,-0.8815,-0.1272,-1.1342,-0.3889c-0.1557,-0.1611,-0.2635,-0.3755,-0.3205,-0.6369l-0.0417,-0.1917l-0.1245,0.1516c-0.6942,0.8459,-1.5603,1.2571,-2.6477,1.2571c-1.1663,0,-2.3471,-0.8713,-2.3471,-2.5367c0,-1.1905,0.5081,-2.3676,1.394,-3.2295c0.931,-0.9058,2.1992,-1.4047,3.5709,-1.4047c0.6516,0,1.3177,0.0984,1.8756,0.277c0.2731,0.0874,0.4359,0.3671,0.3786,0.6505l-0.6205,3.0761c-0.1349,0.6366,-0.2634,1.4021,-0.0566,1.6647c0.0401,0.0511,0.1177,0.1201,0.3272,0.1261l0.035,0.0006c0.9065,0,1.8747,-1.2428,1.8747,-3.0928c0,-2.6668,-1.7172,-4.3234,-4.4816,-4.3234c-3.2407,0,-5.5928,2.4337,-5.5928,5.7867c0,2.7994,1.9165,4.6802,4.7689,4.6802c0.8395,0,1.7645,-0.1825,2.5375,-0.5007c0.0161,-0.0059,0.0341,-0.0096,0.0503,-0.0096c0.115,0,0.2106,0.2072,0.3117,0.4265l0.0167,0.0362c0.0148,0.032,0.0302,0.064,0.0456,0.0958c0.0777,0.1609,0.1511,0.3127,0.1118,0.4152c-0.0222,0.0574,-0.082,0.1053,-0.1829,0.1463C13.792,18.0252,12.8067,18.2024,11.5999,18.2024zM12.9986,9.6371c-1.5671,0,-2.8911,1.3997,-2.8911,3.0565c0,0.2817,0.08,1.2007,1.1091,1.2007c0.9836,0,1.9822,-1.2366,2.1849,-2.3004l0.3254,-1.6158c0.014,-0.069,-0.0006,-0.139,-0.0409,-0.1969c-0.0404,-0.0578,-0.1009,-0.0956,-0.1705,-0.1064C13.3548,9.6497,13.1809,9.6371,12.9986,9.6371z" fill="#FFFFFF"/><path d="M4.2218,19.7782C6.2124,21.7688,8.9624,23,12,23c6.0751,0,11,-4.9249,11,-11c0,-3.0376,-1.2312,-5.7876,-3.2218,-7.7782L4.2218,19.7782z" fill="#231F20" opacity="0.1"/></g></svg>