<?xml version="1.0" encoding="utf-8"?>
<!-- Generator: Adobe Illustrator 17.0.0, SVG Export Plug-In . SVG Version: 6.00 Build 0)  -->
<!DOCTYPE svg PUBLIC "-//W3C//DTD SVG 1.1//EN" "http://www.w3.org/Graphics/SVG/1.1/DTD/svg11.dtd">
<svg version="1.1" id="Layer_1" xmlns="http://www.w3.org/2000/svg" xmlns:xlink="http://www.w3.org/1999/xlink" x="0px" y="0px"
	 width="24px" height="24px" viewBox="0 0 24 24" enable-background="new 0 0 24 24" xml:space="preserve">
<g id="icon">
	<circle fill="#47647C" cx="12" cy="12" r="11"/>
	<path opacity="0.1" fill="#231F20" enable-background="new    " d="M4.222,19.778C6.212,21.769,8.962,23,12,23
		c6.075,0,11-4.925,11-11c0-3.038-1.231-5.788-3.222-7.778L4.222,19.778z"/>
	<g>
		<path fill="#FFFFFF" d="M6.501,10.021v3.916h1.011c0.241,0,0.413,0.046,0.515,0.14c0.103,0.092,0.154,0.213,0.154,0.363
			c0,0.146-0.051,0.266-0.154,0.359c-0.103,0.092-0.274,0.139-0.515,0.139H4.489c-0.241,0-0.413-0.047-0.515-0.139
			c-0.103-0.094-0.154-0.215-0.154-0.364c0-0.146,0.051-0.267,0.154-0.358c0.103-0.094,0.274-0.14,0.515-0.14H5.5v-3.916H4.489
			c-0.241,0-0.413-0.046-0.515-0.139S3.82,9.667,3.82,9.518s0.051-0.271,0.154-0.364s0.274-0.139,0.515-0.139L7.512,9.02
			c0.241,0,0.413,0.045,0.515,0.137s0.154,0.211,0.154,0.361S8.129,9.789,8.027,9.881s-0.274,0.139-0.515,0.139H6.501z"/>
		<path fill="#FFFFFF" d="M10.969,12.677v1.26h0.361c0.241,0,0.413,0.046,0.515,0.14c0.104,0.092,0.154,0.213,0.154,0.363
			c0,0.146-0.051,0.266-0.154,0.359c-0.102,0.092-0.273,0.139-0.515,0.139H9.812c-0.241,0-0.413-0.047-0.515-0.139
			c-0.103-0.094-0.154-0.215-0.154-0.364c0-0.146,0.052-0.267,0.156-0.358c0.104-0.094,0.275-0.14,0.513-0.14h0.156v-3.916H9.812
			c-0.241,0-0.413-0.046-0.515-0.139S9.143,9.667,9.143,9.518s0.051-0.271,0.154-0.364s0.274-0.139,0.515-0.139l2.266,0.005
			c0.706,0,1.254,0.175,1.643,0.525c0.39,0.35,0.584,0.775,0.584,1.277c0,0.313-0.091,0.597-0.273,0.852s-0.457,0.482-0.825,0.681
			c0.212,0.186,0.438,0.423,0.679,0.713c0.149,0.186,0.352,0.476,0.605,0.869c0.254,0,0.422,0.026,0.503,0.078
			c0.146,0.101,0.22,0.243,0.22,0.425c0,0.146-0.051,0.266-0.151,0.359c-0.101,0.092-0.271,0.139-0.513,0.139h-0.571
			c-0.811-1.254-1.482-2.007-2.017-2.261H10.969z M10.969,11.676h0.781c0.29,0,0.549-0.044,0.776-0.132
			c0.306-0.117,0.512-0.241,0.617-0.371c0.106-0.13,0.159-0.259,0.159-0.386c0-0.189-0.101-0.364-0.303-0.525
			s-0.496-0.242-0.884-0.242h-1.147V11.676z"/>
		<path fill="#FFFFFF" d="M19.572,9.273c0.062-0.084,0.129-0.148,0.203-0.19c0.072-0.042,0.151-0.063,0.236-0.063
			c0.146,0,0.266,0.05,0.359,0.151c0.092,0.101,0.139,0.272,0.139,0.513v0.85c0,0.241-0.047,0.413-0.139,0.515
			c-0.094,0.103-0.213,0.154-0.359,0.154c-0.134,0-0.241-0.038-0.322-0.112s-0.142-0.215-0.181-0.42
			c-0.022-0.137-0.068-0.243-0.137-0.317c-0.134-0.146-0.319-0.264-0.56-0.352c-0.238-0.088-0.479-0.132-0.72-0.132
			c-0.3,0-0.574,0.065-0.825,0.195s-0.472,0.342-0.664,0.635s-0.288,0.641-0.288,1.045v0.649c0,0.481,0.175,0.884,0.524,1.206
			c0.351,0.322,0.836,0.483,1.458,0.483c0.371,0,0.686-0.05,0.942-0.151c0.149-0.059,0.31-0.174,0.479-0.347
			c0.104-0.104,0.186-0.172,0.244-0.202c0.059-0.031,0.125-0.047,0.2-0.047c0.134,0,0.251,0.051,0.352,0.151s0.151,0.22,0.151,0.356
			s-0.068,0.283-0.205,0.439c-0.198,0.229-0.454,0.406-0.767,0.537c-0.42,0.176-0.884,0.264-1.392,0.264
			c-0.593,0-1.126-0.122-1.602-0.366c-0.384-0.195-0.711-0.504-0.981-0.925c-0.271-0.422-0.405-0.882-0.405-1.38v-0.679
			c0-0.521,0.121-1.007,0.363-1.458c0.243-0.451,0.579-0.798,1.009-1.042s0.886-0.366,1.367-0.366c0.29,0,0.561,0.033,0.813,0.1
			C19.119,9.035,19.354,9.137,19.572,9.273z"/>
	</g>
</g>
</svg>
