<?xml version="1.0" ?><!DOCTYPE svg  PUBLIC '-//W3C//DTD SVG 1.1//EN'  'http://www.w3.org/Graphics/SVG/1.1/DTD/svg11.dtd'><svg enable-background="new 0 0 24 24" height="24px" id="Layer_1" version="1.1" viewBox="0 0 24 24" width="24px" xml:space="preserve" xmlns="http://www.w3.org/2000/svg" xmlns:xlink="http://www.w3.org/1999/xlink"><g id="icon"><circle cx="12" cy="12" fill="#3D83AA" r="11"/><path d="M8.0553,17.2661c0.3244,0,0.6349,0.0038,0.9453,-0.0009c0.4636,-0.0069,0.7498,-0.236,0.858,-0.6873c0.1641,-0.6847,0.3248,-1.3702,0.4852,-2.0557c0.1231,-0.5262,0.3961,-0.7535,0.9345,-0.7499c1.1273,0.0075,2.245,-0.0604,3.3273,-0.4098c0.9628,-0.3108,1.8259,-0.7886,2.4449,-1.6106c0.8065,-1.0709,0.9465,-2.253,0.5061,-3.5114c-0.0074,-0.0212,-0.0092,-0.0445,-0.0144,-0.0705c0.4448,0.1514,0.9479,0.7353,1.1009,1.3272c0.3862,1.4942,-0.0375,3.08,-1.573,4.1149c-1.0305,0.6945,-2.1924,0.9701,-3.4066,1.0695c-0.4733,0.0387,-0.9499,0.0412,-1.4252,0.0506c-0.5072,0.01,-0.7924,0.2312,-0.9079,0.7228c-0.1648,0.7013,-0.3262,1.4035,-0.4944,2.104c-0.1035,0.4311,-0.4011,0.664,-0.8492,0.6685c-0.4674,0.0047,-0.9349,0.0032,-1.4023,0.0025c-0.5123,-0.0007,-0.6817,-0.2073,-0.5854,-0.7119C8.0128,17.4457,8.031,17.3744,8.0553,17.2661zM17.4004,9.4026c-0.1671,1.6696,-1.1959,2.6736,-2.6535,3.3122c-1.1802,0.517,-2.4379,0.6121,-3.7066,0.6237c-0.0984,0.0009,-0.1969,-0.0022,-0.2952,0.0018c-0.4258,0.0176,-0.71,0.2368,-0.812,0.6531c-0.1792,0.7315,-0.3438,1.4666,-0.5189,2.1992c-0.1143,0.4782,-0.4029,0.7045,-0.8939,0.7074c-0.4756,0.0028,-0.9513,0.0038,-1.4269,0.0013c-0.4601,-0.0025,-0.6484,-0.232,-0.5458,-0.6734c0.7413,-3.1899,1.484,-6.3795,2.2289,-9.5686c0.0989,-0.4236,0.4131,-0.6698,0.8518,-0.673c0.6478,-0.0047,4.0907,0.0453,5.1571,0.1522c0.6928,0.0694,1.3358,0.3312,1.8569,0.822C17.3531,7.63,17.4916,8.4909,17.4004,9.4026zM13.4526,8.1531c-0.5227,-0.106,-1.0708,-0.1084,-1.608,-0.1136c-0.2878,-0.0028,-0.4963,0.1959,-0.6224,0.4568c-0.0387,0.0801,-0.0613,0.1695,-0.0818,0.2568c-0.1443,0.6137,-0.2867,1.2278,-0.4287,1.842c-0.1063,0.4598,0.0784,0.6989,0.5429,0.7043c0.1066,0.0012,0.2132,0.0002,0.3198,0.0002c0.0012,0.0097,0.0025,0.0194,0.0037,0.0291c0.357,-0.0447,0.7186,-0.0666,1.07,-0.1384c1.0553,-0.2156,1.6612,-0.8759,1.6945,-1.8158C14.3662,8.7075,14.1042,8.2853,13.4526,8.1531z" fill="#FFFFFF"/><path d="M4.2218,19.7782C6.2124,21.7688,8.9624,23,12,23c6.0751,0,11,-4.9249,11,-11c0,-3.0376,-1.2312,-5.7876,-3.2218,-7.7782L4.2218,19.7782z" fill="#231F20" opacity="0.1"/></g></svg>