<?xml version="1.0" ?><!DOCTYPE svg  PUBLIC '-//W3C//DTD SVG 1.1//EN'  'http://www.w3.org/Graphics/SVG/1.1/DTD/svg11.dtd'><svg enable-background="new 0 0 24 24" height="24px" id="Layer_1" version="1.1" viewBox="0 0 24 24" width="24px" xml:space="preserve" xmlns="http://www.w3.org/2000/svg" xmlns:xlink="http://www.w3.org/1999/xlink"><g id="icon"><circle cx="12" cy="12" fill="#55AED4" r="11"/><path d="M4.5953,13.7857c0.9771,0.9036,3.4862,1.7588,5.5279,-0.2426c-0.3671,0.0572,-0.6737,-0.0123,-0.9064,-0.2426c-0.2209,-0.2187,-0.233,-0.4451,-0.1149,-0.6511c0.0961,-0.1676,0.2987,-0.2856,0.4979,-0.4085c-0.3613,0.0672,-0.6694,0.0323,-0.9447,-0.1085c-0.3696,-0.189,-0.7291,-0.3879,-0.8298,-0.7979c0.2261,-0.2379,0.4774,-0.4504,1.0214,-0.3702c-0.5117,-0.1709,-0.9702,-0.3938,-1.3023,-0.7277c-0.3233,-0.3252,-0.3567,-0.5366,-0.4085,-0.7916c0.2824,-0.1046,0.5773,-0.159,0.8937,-0.1277c-0.7155,-0.3658,-1.0192,-0.8689,-1.1873,-1.4171c-0.0506,-0.1658,-0.06,-0.3234,-0.0385,-0.4851c2.8979,1.0939,4.2551,1.8799,5.0045,2.6172c0.3371,-0.897,1.123,-2.9285,2.298,-3.6258c0.0054,0.1106,-0.0385,0.2298,-0.1277,0.3575c0.3478,-0.1938,0.6194,-0.5041,1.098,-0.498c-0.0551,0.2264,-0.2135,0.4077,-0.5234,0.5235c0.3126,-0.1198,0.6293,-0.2213,0.9575,-0.2809c0.3042,-0.0551,0.2998,0.1849,0.1277,0.3064c-0.3494,0.2466,-0.7207,0.2772,-1.0851,0.3958c1.1173,0.0277,2.0311,0.5569,2.7448,1.7107c0.2372,0.3834,0.3964,0.7668,0.434,1.1873c0.4766,0.1337,0.9509,0.1611,1.4299,0.0766c0.1312,-0.0235,0.2535,-0.0479,0.3702,-0.1021c-0.1862,0.2794,-0.4012,0.5089,-0.7021,0.6128c-0.2876,0.0993,-0.5758,0.1961,-0.8937,0.2043c0.5173,0.1958,1.0875,0.2067,1.6724,0.166c-0.7156,0.6887,-1.2633,0.6721,-1.8129,0.6639c-0.241,1.0177,-0.7338,2.0326,-1.7745,2.9618c-1.3653,1.2191,-2.835,1.8005,-4.3534,1.9278c-1.4236,0.1193,-2.8,0.103,-4.3024,-0.6001c-1.1139,-0.5212,-2.0476,-1.2386,-2.7704,-2.2341L4.5953,13.7857z" fill="#FFFFFF"/><path d="M4.2218,19.7782C6.2124,21.7688,8.9624,23,12,23c6.0751,0,11,-4.9249,11,-11c0,-3.0376,-1.2312,-5.7876,-3.2218,-7.7782L4.2218,19.7782z" fill="#231F20" opacity="0.1"/></g></svg>