<?xml version="1.0" ?><!DOCTYPE svg  PUBLIC '-//W3C//DTD SVG 1.1//EN'  'http://www.w3.org/Graphics/SVG/1.1/DTD/svg11.dtd'><svg enable-background="new 0 0 24 24" height="24px" id="Layer_1" version="1.1" viewBox="0 0 24 24" width="24px" xml:space="preserve" xmlns="http://www.w3.org/2000/svg" xmlns:xlink="http://www.w3.org/1999/xlink"><g id="icon"><circle cx="12" cy="12" fill="#D82B2B" r="11"/><path d="M17.6879,17.4309c0.1587,-0.3734,0.2148,-0.7336,0.2847,-1.7515c0.0186,-0.3069,0.0186,-1.3511,0,-1.658c-0.0449,-0.6441,-0.0526,-1.4675,-0.4947,-2.1297c-0.2056,-0.2578,-0.5557,-0.4578,-0.929,-0.5245c-0.4673,-0.0844,-2.4605,-0.1511,-4.5148,-0.1511c-2.0589,0,-4.0477,0.0667,-4.5145,0.1511c-0.2988,0.0533,-0.565,0.1821,-0.7937,0.3823c-0.4845,0.4277,-0.5199,1.1608,-0.5928,1.7784c-0.0884,1.1183,-0.0714,1.4208,0,2.645c0.0466,0.5424,0.0793,0.7645,0.1633,1.0314c0.0979,0.3204,0.2241,0.5513,0.3828,0.7026c0.2053,0.2,0.4854,0.3378,0.8076,0.3999c0.4763,0.0935,1.2513,0.1292,3.5201,0.169v0c1.8922,0.0288,3.5595,-0.0017,5.5229,-0.1423c0.3138,-0.0513,0.6037,-0.1924,0.8311,-0.4046C17.506,17.7911,17.5897,17.6667,17.6879,17.4309zM9.7,13.1h-0.8v4.1h-0.8v-4.1h-0.8v-0.7h2.4V13.1zM12,17.2h-0.7v-0.4231c-0.1,0.1436,-0.2641,0.2538,-0.4036,0.3279c-0.1386,0.0773,-0.2743,0.1139,-0.4055,0.1139c-0.1605,0,-0.2836,-0.0526,-0.365,-0.1587c-0.0805,-0.1061,-0.1258,-0.2629,-0.1258,-0.4756V13.6h0.7v2.7397c0,0.0841,0.0146,0.1445,0.0425,0.1815c0.0302,0.0389,0.0775,0.0567,0.1424,0.0567c0.0498,0,0.1186,-0.0247,0.1972,-0.0745c0.0777,-0.0503,0.1178,-0.1139,0.2178,-0.1907V13.6h0.7V17.2zM14.5,16.4h0.0056c0,0.3,-0.0544,0.4603,-0.1633,0.5947c-0.1079,0.1344,-0.2661,0.2087,-0.4715,0.2087c-0.1367,0,-0.2625,-0.021,-0.369,-0.0731c-0.1052,-0.0512,-0.2018,-0.1266,-0.3018,-0.2359V17.2h-0.7v-4.8h0.7v1.5046c0.1,-0.1079,0.1994,-0.1902,0.3027,-0.246c0.1061,-0.0576,0.2154,-0.0851,0.3233,-0.0851c0.2195,0,0.3861,0.075,0.5014,0.2264c0.1162,0.1514,0.1726,0.3727,0.1726,0.6635V16.4zM15.6601,16.5349c0.0457,0.0727,0.1201,0.1079,0.2322,0.1079c0.1152,0,0.1939,-0.0306,0.2401,-0.0919c0.0448,-0.0622,0.0677,-0.1962,0.0677,-0.4052V16h0.6v0.1664c0,0.364,-0.0303,0.6379,-0.2059,0.8227c-0.1724,0.1829,-0.4043,0.2744,-0.75,0.2744c-0.3119,0,-0.5281,-0.0974,-0.7055,-0.2927c-0.1779,-0.1934,-0.2386,-0.4623,-0.2386,-0.8044v-1.5946c0,-0.3068,0.0829,-0.5593,0.28,-0.7527c0.1957,-0.1934,0.44,-0.2904,0.7514,-0.2904c0.3178,0,0.502,0.0901,0.673,0.2693c0.1706,0.1797,0.1956,0.4376,0.1956,0.7737V15.5h-1.2v0.6458C15.6,16.3324,15.6148,16.4622,15.6601,16.5349zM16.2,14.9h-0.6v-0.3342c0,-0.1491,0.0145,-0.2556,0.0635,-0.3183c0.0476,-0.0658,0.1204,-0.0983,0.2301,-0.0983c0.1066,0,0.1871,0.0325,0.2332,0.0979c0.048,0.0627,0.0732,0.1697,0.0732,0.3183V14.9zM13.7229,14.2302c0.048,0.0622,0.0771,0.1523,0.0771,0.273v1.8328c0,0.1134,-0.0271,0.1944,-0.0664,0.2447c-0.0402,0.0508,-0.1084,0.0759,-0.193,0.0759c-0.059,0,-0.1169,-0.0137,-0.1704,-0.038c-0.0535,-0.0256,-0.0701,-0.0695,-0.1701,-0.1267v-2.2115c0.1,-0.0489,0.1001,-0.086,0.1481,-0.1088c0.048,-0.0233,0.105,-0.0343,0.1544,-0.0343C13.5963,14.1373,13.6717,14.1684,13.7229,14.2302zM7.9644,5L9,8.118V10.2h0.9V8.0183L10.9153,5h-0.8949l-0.5442,2h-0.0553l-0.5716,-2H7.9644zM11.3036,6.4776c-0.209,0.1793,-0.3036,0.4198,-0.3036,0.7239v2.0267c0,0.3325,0.0923,0.5959,0.2958,0.793c0.2062,0.1962,0.4744,0.2954,0.8165,0.2954c0.3544,0,0.6074,-0.0956,0.8109,-0.2858c0.2008,-0.1911,0.2768,-0.4523,0.2768,-0.787V7.2239c0,-0.2977,-0.08,-0.5428,-0.2858,-0.7317c-0.2072,-0.1884,-0.4545,-0.2835,-0.7788,-0.2835C11.7806,6.2088,11.5144,6.2984,11.3036,6.4776zM12.5,7.1714v2.131c0,0.1047,-0.0568,0.187,-0.1185,0.2474c-0.0626,0.0599,-0.1596,0.0896,-0.2653,0.0896c-0.1038,0,-0.1803,-0.0284,-0.2356,-0.0887c-0.0553,-0.059,-0.0806,-0.1413,-0.0806,-0.2483v-2.131c0,-0.0851,0.0214,-0.1532,0.0794,-0.2072c0.0608,-0.0526,0.1332,-0.0782,0.2288,-0.0782c0.1033,0,0.2091,0.0256,0.2727,0.0782C12.4454,7.0182,12.5,7.0863,12.5,7.1714zM16.1,10.2174V6.3h-0.8v2.9758c0,0.0851,-0.1386,0.1546,-0.226,0.2104c-0.0892,0.0549,-0.1544,0.0823,-0.2115,0.0823c-0.0732,0,-0.1034,-0.0206,-0.1359,-0.0631c-0.032,-0.0412,-0.0266,-0.1079,-0.0266,-0.1998V6.3h-0.8v3.2763c0,0.2332,0.0366,0.4075,0.1276,0.5227c0.0919,0.1171,0.2218,0.1761,0.4029,0.1761c0.1472,0,0.2806,-0.0425,0.4361,-0.1253c0.1573,-0.0837,0.3334,-0.2053,0.4334,-0.3649V10.2h0.8097L16.1,10.2174z" fill="#FFFFFF"/><path d="M4.2218,19.7782C6.2124,21.7688,8.9624,23,12,23c6.0751,0,11,-4.9249,11,-11c0,-3.0376,-1.2312,-5.7876,-3.2218,-7.7782L4.2218,19.7782z" fill="#231F20" opacity="0.1"/></g></svg>